# xmcd
#
# Track frame offsets: 
#        182
#        23400
#        46795
#        71847
#        93425
#        116182
#        137932
#        158267
#        182772
#        204417
#
# Disc length: 3046 seconds
#
# Revision: 1
# Processed by: cddbd v1.5.2PL0 Copyright (c) Steve Scherf et al.
# Submitted via: ExactAudioCopy v1.3
#
DISCID=7f0be40a
DTITLE=Robert Brookins - Let It Be Me
DYEAR=1988
DGENRE=Funk
TTITLE0=Where Is The Love (With Stephanie Mills)
TTITLE1=Let It Be Me
TTITLE2=Crazy 'Bout Your Lovin'
TTITLE3=Hold On
TTITLE4=At Last
TTITLE5=Don't Tease Me
TTITLE6=Self Control
TTITLE7=United
TTITLE8=Real Talk
TTITLE9=Code Blue
EXTD=
EXTT0=
EXTT1=
EXTT2=
EXTT3=
EXTT4=
EXTT5=
EXTT6=
EXTT7=
EXTT8=
EXTT9=
PLAYORDER=
